<svg xmlns="http://www.w3.org/2000/svg" viewBox="0 0 128 128" role="img" aria-label="RedRoute logo">
  <defs>
    <linearGradient id="rr-g" x1="0" y1="0" x2="1" y2="1">
      <stop offset="0" stop-color="#ef4444" />
      <stop offset="1" stop-color="#b91c1c" />
    </linearGradient>
  </defs>
  <rect x="8" y="8" width="112" height="112" rx="28" fill="url(#rr-g)" />
  <path
    d="M41 82V46h22.5c11 0 18.5 5.7 18.5 15.8 0 6.9-3.7 12.1-9.7 14.4L86.5 82H73.6L61.2 79.6H53.3V82H41Zm12.3-20.6h10.4c4.7 0 7.2-2 7.2-5.5 0-3.6-2.5-5.6-7.2-5.6H53.3v11.1Z"
    fill="#ffffff"
  />
  <path
    d="M84.5 46h8.5v18.8c0 11.3-7.2 18.3-19.5 18.3-5.8 0-10.7-1.5-14.4-4.6l5-7.1c2.7 2.2 5.9 3.3 9.4 3.3 6.7 0 10.9-3.4 10.9-10V46Z"
    fill="#ffffff"
    opacity="0.9"
  />
</svg>
